<svg xmlns="http://www.w3.org/2000/svg" xmlns:xlink="http://www.w3.org/1999/xlink" version="1.1" width="256" height="256" viewBox="0 0 256 256" xml:space="preserve">
<defs>
</defs>
<g style="stroke-width: 4; stroke: #667085; fill: none; fill-rule: nonzero; opacity: 1;" transform="translate(1.4065934065934016 1.4065934065934016) scale(2.81 2.81)">
    <path d="M 27.458 59.589 c -0.391 -0.391 -1.023 -0.391 -1.414 0 L 5.271 80.36 c -0.391 0.391 -0.391 1.023 0 1.414 c 0.195 0.195 0.451 0.293 0.707 0.293 s 0.512 -0.098 0.707 -0.293 l 20.772 -20.771 C 27.848 60.612 27.848 59.979 27.458 59.589 z" style="stroke: #667085; stroke-width: 4; fill: #667085;" transform=" matrix(1 0 0 1 0 0)" stroke-linecap="round"/>
    <path d="M 11.171 56.383 c -0.391 -0.391 -1.023 -0.391 -1.414 0 l -8.971 8.971 c -0.391 0.391 -0.391 1.023 0 1.414 c 0.195 0.195 0.451 0.293 0.707 0.293 s 0.512 -0.098 0.707 -0.293 l 8.971 -8.971 C 11.562 57.406 11.562 56.773 11.171 56.383 z" style="stroke: #667085; stroke-width: 4; fill: #667085;" transform=" matrix(1 0 0 1 0 0)" stroke-linecap="round"/>
    <path d="M 29.25 75.875 l -8.971 8.971 c -0.391 0.391 -0.391 1.023 0 1.414 c 0.195 0.195 0.451 0.293 0.707 0.293 s 0.512 -0.098 0.707 -0.293 l 8.971 -8.971 c 0.391 -0.391 0.391 -1.023 0 -1.414 S 29.64 75.484 29.25 75.875 z" style="stroke: #667085; stroke-width: 4; fill: #667085;" transform=" matrix(1 0 0 1 0 0)" stroke-linecap="round"/>
    <path d="M 74.187 26.662 l 9.82 -22.305 c 0.166 -0.377 0.084 -0.818 -0.208 -1.11 c -0.291 -0.291 -0.732 -0.375 -1.11 -0.208 L 0.597 39.18 c -0.327 0.144 -0.552 0.451 -0.591 0.805 C -0.033 40.34 0.12 40.688 0.407 40.9 L 20.5 55.692 c 0.229 0.167 0.518 0.232 0.793 0.174 l 12.434 -2.547 L 31.18 65.753 c -0.057 0.277 0.006 0.566 0.174 0.794 l 14.792 20.092 c 0.19 0.258 0.49 0.407 0.806 0.407 c 0.036 0 0.073 -0.002 0.109 -0.006 c 0.355 -0.039 0.662 -0.265 0.806 -0.591 l 7.574 -17.203 c 3.328 1.828 7.147 2.87 11.205 2.87 C 79.522 72.116 90 61.639 90 48.761 C 90 38.522 83.374 29.807 74.187 26.662 z M 46.732 84.062 L 33.228 65.72 l 2.762 -13.483 c 0.067 -0.33 -0.035 -0.671 -0.272 -0.908 s -0.576 -0.34 -0.908 -0.272 l -13.483 2.762 L 2.984 40.314 L 81.14 5.906 L 72.254 26.09 c -0.01 -0.003 -0.021 -0.004 -0.031 -0.007 c -0.414 -0.102 -0.832 -0.191 -1.254 -0.27 c -0.081 -0.015 -0.163 -0.029 -0.244 -0.044 c -0.353 -0.063 -0.709 -0.117 -1.067 -0.163 c -0.108 -0.014 -0.216 -0.029 -0.324 -0.041 c -0.34 -0.039 -0.682 -0.07 -1.026 -0.094 c -0.11 -0.008 -0.22 -0.019 -0.331 -0.025 c -0.441 -0.025 -0.885 -0.041 -1.332 -0.041 c -12.879 0 -23.356 10.478 -23.356 23.356 c 0 0.45 0.016 0.896 0.041 1.34 c 0.009 0.168 0.025 0.334 0.038 0.501 c 0.021 0.266 0.044 0.532 0.074 0.795 c 0.024 0.218 0.053 0.435 0.083 0.651 c 0.027 0.19 0.056 0.378 0.088 0.567 c 0.044 0.268 0.09 0.535 0.143 0.8 c 0.013 0.064 0.028 0.128 0.042 0.192 c 1.243 5.938 4.741 11.164 9.914 14.602 L 46.732 84.062 z M 66.645 70.116 c -4.391 0 -8.474 -1.334 -11.872 -3.615 c -0.031 -0.021 -0.063 -0.041 -0.094 -0.062 c -5.051 -3.43 -8.556 -8.966 -9.255 -15.335 c -0.013 -0.123 -0.024 -0.246 -0.035 -0.369 c -0.06 -0.651 -0.1 -1.308 -0.1 -1.975 c 0 -11.776 9.58 -21.356 21.356 -21.356 c 0.646 0 1.282 0.041 1.914 0.097 c 0.192 0.017 0.383 0.038 0.575 0.061 c 0.491 0.057 0.977 0.133 1.458 0.223 c 0.152 0.029 0.305 0.049 0.456 0.081 C 80.717 29.901 88 38.494 88 48.761 C 88 60.536 78.42 70.116 66.645 70.116 z" style="stroke: #667085; stroke-width: 4; fill: #667085;" transform=" matrix(1 0 0 1 0 0)" stroke-linecap="round"/>
    <path d="M 73.459 58.67 H 61.692 c 1.592 -2.149 2.267 -5.037 2.555 -9.12 h 4.389 c 0.553 0 1 -0.447 1 -1 s -0.447 -1 -1 -1 h -4.28 c 0.089 -2.221 0.102 -4.751 0.102 -7.66 c 0 -1.775 1.454 -3.22 3.241 -3.22 s 3.241 1.454 3.241 3.24 v 2.843 c 0 0.552 0.447 1 1 1 s 1 -0.448 1 -1 V 39.91 c 0 -2.89 -2.352 -5.24 -5.241 -5.24 s -5.241 2.342 -5.241 5.22 c 0 2.944 -0.015 5.469 -0.104 7.66 h -4.666 c -0.553 0 -1 0.447 -1 1 s 0.447 1 1 1 h 4.554 c -0.343 4.659 -1.23 7.513 -3.529 9.337 c -0.334 0.265 -0.463 0.711 -0.323 1.112 s 0.519 0.671 0.944 0.671 h 14.123 c 0.553 0 1 -0.447 1 -1 S 74.012 58.67 73.459 58.67 z" style="stroke: #667085; stroke-width: 4; fill: #667085;" transform=" matrix(1 0 0 1 0 0)" stroke-linecap="round"/>
</g>
</svg>
